<?xml version="1.0" encoding="UTF-8"?>
<svg version="1.1" xmlns="http://www.w3.org/2000/svg" width="144" height="144">
<path d="M0 0 C47.52 0 95.04 0 144 0 C144 47.52 144 95.04 144 144 C96.48 144 48.96 144 0 144 C0 96.48 0 48.96 0 0 Z " fill="#B9BAD8" transform="translate(0,0)"/>
<path d="M0 0 C47.52 0 95.04 0 144 0 C144 47.52 144 95.04 144 144 C96.48 144 48.96 144 0 144 C0 96.48 0 48.96 0 0 Z M81 20 C79.04517304 20.94478953 77.08679724 21.88227031 75.125 22.8125 C74.24070313 23.25207031 73.35640625 23.69164062 72.4453125 24.14453125 C69.6765943 25.11314033 68.67813017 25.09955751 66 24 C63.9978042 22.83678098 62.11128949 21.55320239 60.1953125 20.25390625 C52.99549287 16.14155376 44.41397447 15.62174735 36.4375 17.65234375 C27.6917614 21.19011648 21.23021911 27.64849447 17 36 C14.27894314 44.16317059 15.24784537 53.80774876 18.75390625 61.5390625 C19.6752685 63.35868073 20.62499667 65.16399871 21.58984375 66.9609375 C23.10211882 70.01627187 24.3280971 72.65401376 25 76 C23.95520613 78.84631086 22.6605015 80.67973211 20.68359375 82.96484375 C15.65062866 89.04877603 16.44935942 96.51975945 17 104 C18.81726367 112.42308344 23.97326097 119.20781783 31 124 C37.73634986 127.72453473 44.36289156 129.30532211 52 128 C58.85976517 125.7848675 65.35351726 122.95060254 71.6875 119.5 C72.780625 119.005 73.87375 118.51 75 118 C78.61753725 119.37914095 81.77628871 121.7570494 85 123.87890625 C91.58598466 127.57065937 101.57590602 127.10444572 108.73828125 125.31640625 C110.99153507 124.3785234 112.95282715 123.32586755 115 122 C115.62261719 121.61070313 116.24523437 121.22140625 116.88671875 120.8203125 C123.47672652 115.98859313 127.27741091 108.53682722 128.546875 100.56640625 C129.04698856 88.10524334 123.70722762 77.75873122 118 67 C118.66 67 119.32 67 120 67 C121.56484351 64.89110992 121.56484351 64.89110992 123.0625 62.25 C123.58972656 61.36828125 124.11695312 60.4865625 124.66015625 59.578125 C128.30383083 52.56697275 128.01473397 43.73111634 126.38671875 36.140625 C123.852931 28.95225798 119.26593439 23.38146823 112.5859375 19.65234375 C101.52388627 14.6257765 91.941335 14.67352064 81 20 Z " fill="#B9BAD8" transform="translate(0,0)"/>
<path d="M0 0 C5.55232578 4.53526424 10.47837835 10.22179398 11.77734375 17.45703125 C12.53415783 27.30802102 11.80606774 35.39833006 6.265625 43.73046875 C5.77449219 44.30023438 5.28335938 44.87 4.77734375 45.45703125 C4.11734375 45.45703125 3.45734375 45.45703125 2.77734375 45.45703125 C3.04474365 46.01165039 3.31214355 46.56626953 3.58764648 47.13769531 C4.8005696 49.65897257 6.00775655 52.18295513 7.21484375 54.70703125 C7.63572266 55.57972656 8.05660156 56.45242187 8.49023438 57.3515625 C8.89306641 58.19589844 9.29589844 59.04023437 9.7109375 59.91015625 C10.08275146 60.68520508 10.45456543 61.46025391 10.83764648 62.25878906 C13.96185601 69.56728024 14.11609642 78.32602302 11.68359375 85.83203125 C8.78474732 91.99978961 5.59599204 96.81887021 -0.22265625 100.45703125 C-0.85558594 100.86695312 -1.48851563 101.276875 -2.140625 101.69921875 C-9.74984577 105.83932011 -19.00698329 105.76763625 -27.26953125 103.69140625 C-31.70786474 102.03687956 -35.23321669 100.26177251 -38.22265625 96.45703125 C-43.11982252 97.98691522 -47.73512799 99.92977207 -52.41015625 102.01953125 C-61.61352291 106.11640616 -69.44782836 108.47387152 -79.34765625 104.95703125 C-87.04969729 101.47394263 -93.10613802 96.06997026 -96.56640625 88.31640625 C-99.09065315 81.16437336 -99.6743534 72.71123256 -97.2109375 65.4921875 C-95.52058579 62.11656021 -93.76672926 59.09830006 -91.3203125 56.21484375 C-89.97649546 53.62824085 -89.97649546 53.62824085 -90.71948242 51.5324707 C-91.70347793 49.25414065 -92.80091862 47.08215038 -93.97265625 44.89453125 C-94.74114675 43.39469395 -95.50687144 41.89343557 -96.26953125 40.390625 C-96.61854492 39.73118896 -96.96755859 39.07175293 -97.32714844 38.39233398 C-100.56655428 31.39157878 -100.50081657 21.80163 -98.3515625 14.49609375 C-94.26173082 5.78005903 -88.09976418 0.04647054 -79.22265625 -3.54296875 C-71.30105251 -6.18350333 -62.80119643 -5.08200382 -55.3046875 -1.703125 C-53.22265625 -0.54296875 -53.22265625 -0.54296875 -50.41015625 1.76953125 C-48.39508551 3.71533876 -48.39508551 3.71533876 -46.05859375 3.28125 C-42.4022054 2.21858066 -39.06843075 0.62597983 -35.66015625 -1.04296875 C-23.57743871 -6.92487817 -11.54008377 -8.01113021 0 0 Z M-86.99609375 13.67578125 C-90.58877431 18.89317723 -91.04350021 23.21694194 -90.22265625 29.45703125 C-88.30584264 35.92825735 -85.54725837 41.93403722 -82.41015625 47.89453125 C-79.15302238 54.35676809 -79.15302238 54.35676809 -80.22265625 58.45703125 C-81.88326263 60.62098205 -83.67160095 62.59885375 -85.53125 64.59375 C-89.34938354 68.79986939 -89.79193419 73.24351766 -89.66015625 78.76171875 C-88.61395777 85.2070487 -84.80494992 90.71468971 -79.59765625 94.58203125 C-74.24911829 97.38749078 -69.09174899 97.53325441 -63.22265625 96.45703125 C-56.50446181 94.24542125 -50.2036083 90.98635855 -43.92578125 87.765625 C-40.5367661 86.12498905 -38.94300291 85.71296192 -35.22265625 86.45703125 C-33.03823836 88.08264456 -31.10060689 89.82915171 -29.15234375 91.73046875 C-24.53079269 95.86554075 -20.30160817 95.94621734 -14.265625 95.8359375 C-8.28321154 95.09101567 -4.3156249 91.87854609 -0.34765625 87.51953125 C3.3630995 82.17167737 4.69817694 76.93291251 3.77734375 70.45703125 C2.3927299 66.60772564 0.60336978 62.98901852 -1.22265625 59.33203125 C-7.20010647 47.26404391 -7.20010647 47.26404391 -6.22265625 42.45703125 C-4.76171875 40.296875 -4.76171875 40.296875 -2.84765625 38.39453125 C2.07050786 33.11868248 3.26111723 29.21301721 3.08984375 22.01953125 C2.415511 16.49000271 -0.0135204 12.25721496 -4.16015625 8.58203125 C-10.0487908 4.49603993 -15.89400407 3.10147617 -23.0546875 3.95117188 C-28.689433 5.26594582 -33.88075099 8.22956706 -38.97460938 10.89941406 C-39.84021484 11.35155273 -40.70582031 11.80369141 -41.59765625 12.26953125 C-42.75394531 12.89794922 -42.75394531 12.89794922 -43.93359375 13.5390625 C-46.5557464 14.59060836 -48.42153339 14.72948537 -51.22265625 14.45703125 C-52.99609375 13.03125 -52.99609375 13.03125 -54.59765625 11.14453125 C-58.96054376 6.4995605 -63.25451069 4.37112758 -69.66015625 4.01953125 C-77.30839878 4.33170441 -82.27780717 7.87676981 -86.99609375 13.67578125 Z " fill="#FDFDFE" transform="translate(115.22265625,21.54296875)"/>
<path d="M0 0 C3.375 2.0625 3.375 2.0625 6 5 C6.77152986 9.32056721 6.52747866 11.19119939 4.125 14.875 C1.61333682 17.38666318 0.70615837 17.92153796 -2.8125 18.3125 C-6.7307645 17.92835642 -8.21293267 16.70743683 -11 14 C-12.42662219 11.14675563 -12.31033868 9.16545451 -12 6 C-8.57142548 0.85713823 -6.21724352 -0.71737425 0 0 Z " fill="#FDFCFD" transform="translate(47,34)"/>
<path d="M0 0 C2.5625 2.125 2.5625 2.125 4 5 C3.93773185 8.54928466 3.37203032 11.11642798 2 14.375 C-1.28789167 17.04641198 -4.84197257 17.40779253 -9 17 C-12.0625 15.0625 -12.0625 15.0625 -14 12 C-14.66967544 8.97450203 -14.45596069 7.19172481 -14 4 C-10.03851743 -1.14992734 -6.14900438 -1.74646278 0 0 Z " fill="#FCFCFD" transform="translate(51,92)"/>
<path d="M0 0 C2.92488107 1.99140839 4.66988282 3.41229358 5.41015625 6.97265625 C5.54085106 10.01273119 5.15280773 12.60269991 4.0625 15.4375 C0.69169697 17.99113866 -2.8352061 18.40845614 -7 18 C-10.10340188 16.0366233 -11.58944986 14.68630927 -12.47265625 11.05859375 C-12.76573062 7.09833238 -12.22884945 5.33287193 -9.9375 2 C-6.22192774 -0.52975133 -4.4117517 -0.7878128 0 0 Z " fill="#FCFDFD" transform="translate(104,91)"/>
<path d="M0 0 C2.5625 1.5 2.5625 1.5 4 4 C4.58199542 8.58321396 4.54877707 10.85472611 2.5625 15 C-0.70204856 17.54794034 -2.81153884 17.67376597 -6.87109375 17.40625 C-9 17 -9 17 -11.5625 15.5625 C-13.7145847 11.72617511 -13.74831272 8.29295189 -13 4 C-10.14303498 -1.09285069 -5.27178986 -0.92860886 0 0 Z " fill="#FDFDFE" transform="translate(102,36)"/>
</svg>
